<svg width="22" height="22" viewBox="0 0 22 22" fill="none" xmlns="http://www.w3.org/2000/svg">
<path d="M17.6458 5.5H15.5145C15.3549 4.7241 14.9328 4.02693 14.3191 3.52599C13.7055 3.02506 12.9379 2.751 12.1458 2.75L10.7708 2.75C9.97861 2.751 9.21103 3.02506 8.59739 3.52599C7.98375 4.02693 7.56157 4.7241 7.402 5.5H5.27075C5.08842 5.5 4.91355 5.57243 4.78462 5.70136C4.65568 5.8303 4.58325 6.00516 4.58325 6.1875C4.58325 6.36984 4.65568 6.5447 4.78462 6.67364C4.91355 6.80257 5.08842 6.875 5.27075 6.875H5.95825V15.8125C5.95934 16.7238 6.32186 17.5976 6.96628 18.242C7.6107 18.8864 8.48441 19.2489 9.39575 19.25H13.5208C14.4321 19.2489 15.3058 18.8864 15.9502 18.242C16.5946 17.5976 16.9572 16.7238 16.9583 15.8125V6.875H17.6458C17.8281 6.875 18.003 6.80257 18.1319 6.67364C18.2608 6.5447 18.3333 6.36984 18.3333 6.1875C18.3333 6.00516 18.2608 5.8303 18.1319 5.70136C18.003 5.57243 17.8281 5.5 17.6458 5.5ZM10.7708 4.125H12.1458C12.5722 4.12552 12.988 4.25795 13.3362 4.50412C13.6844 4.75029 13.948 5.09815 14.0907 5.5H8.82581C8.96853 5.09815 9.23206 4.75029 9.58027 4.50412C9.92848 4.25795 10.3443 4.12552 10.7708 4.125ZM15.5833 15.8125C15.5833 16.3595 15.366 16.8841 14.9792 17.2709C14.5924 17.6577 14.0678 17.875 13.5208 17.875H9.39575C8.84874 17.875 8.32414 17.6577 7.93734 17.2709C7.55055 16.8841 7.33325 16.3595 7.33325 15.8125V6.875H15.5833V15.8125Z" fill="white"/>
<path d="M9.62484 15.5834C9.74639 15.5834 9.86297 15.5109 9.94893 15.382C10.0349 15.2531 10.0832 15.0782 10.0832 14.8959V10.7709C10.0832 10.5885 10.0349 10.4137 9.94893 10.2847C9.86297 10.1558 9.74639 10.0834 9.62484 10.0834C9.50328 10.0834 9.3867 10.1558 9.30075 10.2847C9.21479 10.4137 9.1665 10.5885 9.1665 10.7709V14.8959C9.1665 15.0782 9.21479 15.2531 9.30075 15.382C9.3867 15.5109 9.50328 15.5834 9.62484 15.5834Z" fill="white"/>
<path d="M13.2916 15.5834C13.4131 15.5834 13.5297 15.5109 13.6157 15.382C13.7016 15.2531 13.7499 15.0782 13.7499 14.8959V10.7709C13.7499 10.5885 13.7016 10.4137 13.6157 10.2847C13.5297 10.1558 13.4131 10.0834 13.2916 10.0834C13.17 10.0834 13.0534 10.1558 12.9675 10.2847C12.8815 10.4137 12.8333 10.5885 12.8333 10.7709V14.8959C12.8333 15.0782 12.8815 15.2531 12.9675 15.382C13.0534 15.5109 13.17 15.5834 13.2916 15.5834Z" fill="white"/>
</svg>
