<svg width="26" height="27" viewBox="0 0 26 27" fill="none" xmlns="http://www.w3.org/2000/svg">
<rect y="0.5" width="26" height="26" rx="6" fill="#F6F6FF"/>
<path d="M18.4375 9H16.6937C16.5632 8.36517 16.2178 7.79476 15.7157 7.3849C15.2136 6.97505 14.5856 6.75082 13.9375 6.75L12.8125 6.75C12.1644 6.75082 11.5364 6.97505 11.0343 7.3849C10.5322 7.79476 10.1868 8.36517 10.0562 9H8.3125C8.16332 9 8.02024 9.05926 7.91475 9.16475C7.80926 9.27024 7.75 9.41332 7.75 9.5625C7.75 9.71168 7.80926 9.85476 7.91475 9.96025C8.02024 10.0657 8.16332 10.125 8.3125 10.125H8.875V17.4375C8.87589 18.1831 9.1725 18.898 9.69975 19.4253C10.227 19.9525 10.9419 20.2491 11.6875 20.25H15.0625C15.8081 20.2491 16.523 19.9525 17.0503 19.4253C17.5775 18.898 17.8741 18.1831 17.875 17.4375V10.125H18.4375C18.5867 10.125 18.7298 10.0657 18.8352 9.96025C18.9407 9.85476 19 9.71168 19 9.5625C19 9.41332 18.9407 9.27024 18.8352 9.16475C18.7298 9.05926 18.5867 9 18.4375 9ZM12.8125 7.875H13.9375C14.2864 7.87543 14.6266 7.98377 14.9115 8.18519C15.1964 8.3866 15.412 8.67121 15.5288 9H11.2212C11.338 8.67121 11.5536 8.3866 11.8385 8.18519C12.1234 7.98377 12.4636 7.87543 12.8125 7.875ZM16.75 17.4375C16.75 17.8851 16.5722 18.3143 16.2557 18.6307C15.9393 18.9472 15.5101 19.125 15.0625 19.125H11.6875C11.2399 19.125 10.8107 18.9472 10.4943 18.6307C10.1778 18.3143 10 17.8851 10 17.4375V10.125H16.75V17.4375Z" fill="#FF3093"/>
<path d="M11.875 17.25C11.9745 17.25 12.0698 17.1907 12.1402 17.0852C12.2105 16.9798 12.25 16.8367 12.25 16.6875V13.3125C12.25 13.1633 12.2105 13.0202 12.1402 12.9148C12.0698 12.8093 11.9745 12.75 11.875 12.75C11.7755 12.75 11.6802 12.8093 11.6098 12.9148C11.5395 13.0202 11.5 13.1633 11.5 13.3125V16.6875C11.5 16.8367 11.5395 16.9798 11.6098 17.0852C11.6802 17.1907 11.7755 17.25 11.875 17.25Z" fill="#FF3093"/>
<path d="M14.875 17.25C14.9745 17.25 15.0698 17.1907 15.1402 17.0852C15.2105 16.9798 15.25 16.8367 15.25 16.6875V13.3125C15.25 13.1633 15.2105 13.0202 15.1402 12.9148C15.0698 12.8093 14.9745 12.75 14.875 12.75C14.7755 12.75 14.6802 12.8093 14.6098 12.9148C14.5395 13.0202 14.5 13.1633 14.5 13.3125V16.6875C14.5 16.8367 14.5395 16.9798 14.6098 17.0852C14.6802 17.1907 14.7755 17.25 14.875 17.25Z" fill="#FF3093"/>
</svg>
