<svg width="26" height="27" viewBox="0 0 26 27" fill="none" xmlns="http://www.w3.org/2000/svg">
<rect y="0.5" width="26" height="26" rx="6" fill="#F6F6FF"/>
<path fill-rule="evenodd" clip-rule="evenodd" d="M14.2131 7.85531C14.8008 7.26765 15.5978 6.9375 16.4289 6.9375C18.1596 6.9375 19.5625 8.34046 19.5625 10.0711C19.5625 10.9022 19.2324 11.6992 18.6447 12.2869L14.7279 16.2037C12.953 17.9786 10.7291 19.2378 8.29397 19.8465L7.53694 20.0358L7.40051 19.4901L7.53694 20.0358C6.88909 20.1978 6.30227 19.6109 6.46423 18.9631L6.65349 18.206C7.26227 15.7709 8.52142 13.547 10.2963 11.7721L14.2131 7.85531ZM16.4289 8.0625C15.8962 8.0625 15.3853 8.27412 15.0086 8.65081L14.3652 9.2942C14.2283 9.90153 14.5284 10.687 15.1707 11.3293C15.813 11.9716 16.5985 12.2717 17.2058 12.1348L17.8492 11.4914C18.2259 11.1147 18.4375 10.6038 18.4375 10.0711C18.4375 8.96178 17.5382 8.0625 16.4289 8.0625ZM16.1495 13.1911C15.4774 13.0084 14.853 12.6026 14.3752 12.1248C13.8974 11.647 13.4917 11.0226 13.3089 10.3505L11.0918 12.5676C9.46109 14.1983 8.30423 16.2416 7.7449 18.4789L7.65282 18.8472L8.02112 18.7551C10.2584 18.1958 12.3017 17.0389 13.9324 15.4082L16.1495 13.1911Z" fill="#395BD3"/>
</svg>
